<?xml version="1.0" standalone="no"?>
<!DOCTYPE svg PUBLIC "-//W3C//DTD SVG 20010904//EN"
 "http://www.w3.org/TR/2001/REC-SVG-20010904/DTD/svg10.dtd">
<svg version="1.0" xmlns="http://www.w3.org/2000/svg"
 width="640.000000pt" height="640.000000pt" viewBox="0 0 640.000000 640.000000"
 preserveAspectRatio="xMidYMid meet">

<g transform="translate(0.000000,640.000000) scale(0.100000,-0.100000)"
fill="#000000" stroke="none">
<path d="M792 5919 c-90 -95 -106 -120 -97 -159 10 -48 65 -102 110 -109 33
-5 41 -11 43 -31 5 -31 50 -80 74 -80 11 0 18 -7 18 -19 0 -26 38 -71 61 -71
12 0 19 -7 19 -19 0 -26 40 -71 65 -75 11 -2 22 -11 23 -22 5 -24 51 -74 69
-74 7 0 13 -8 13 -17 0 -23 49 -73 72 -73 10 0 15 -5 12 -14 -7 -18 43 -76 67
-76 12 0 19 -7 19 -19 0 -26 38 -71 61 -71 12 0 19 -7 19 -18 0 -19 49 -72 66
-72 12 0 54 -42 54 -53 0 -14 -108 -173 -177 -262 -39 -49 -116 -140 -172
-202 -73 -81 -101 -119 -101 -138 0 -39 26 -92 54 -110 30 -20 106 -22 165 -4
33 10 42 18 52 48 25 79 29 50 27 -184 l-3 -240 -128 -1 c-70 -1 -130 -3 -132
-6 -2 -2 -55 -146 -116 -319 -61 -173 -158 -447 -215 -609 -58 -162 -120 -337
-138 -388 l-34 -92 384 0 c377 0 384 0 384 -20 0 -16 -309 -340 -555 -581 -14
-14 -161 -839 -150 -839 7 0 102 20 211 44 109 24 277 61 373 82 l174 38 71
82 c40 45 92 107 116 137 25 31 48 56 53 57 4 0 39 -27 79 -60 73 -61 113 -88
403 -265 161 -99 272 -167 488 -302 161 -100 223 -130 300 -144 119 -22 215 5
372 104 39 25 187 116 330 204 558 343 607 375 664 437 14 14 29 26 35 26 6 0
64 -62 128 -138 l117 -138 381 -83 c210 -46 383 -81 385 -79 2 2 -12 87 -30
188 -19 102 -54 289 -77 415 l-43 230 -275 278 c-182 184 -276 287 -278 303
l-3 24 144 0 145 0 15 42 c8 24 77 216 152 428 75 212 165 466 200 565 35 99
79 224 99 279 20 54 36 99 36 100 0 0 -177 1 -392 1 l-393 0 -5 230 c-3 127
-2 234 1 238 3 4 11 -11 18 -33 15 -51 53 -70 142 -70 56 0 64 3 95 34 28 28
34 41 34 78 0 42 -5 50 -86 139 -136 148 -271 323 -343 442 l-23 38 23 25 c12
13 30 24 39 24 19 0 60 51 60 75 0 8 9 15 19 15 21 0 71 53 71 76 0 8 6 14 13
14 17 0 67 52 67 71 0 7 15 21 33 29 22 10 35 26 42 48 5 17 15 32 23 32 20 0
72 59 72 82 0 10 4 17 9 14 14 -9 71 43 71 65 0 11 10 23 24 29 26 10 66 56
66 76 0 8 9 14 19 14 21 0 61 48 61 72 0 22 22 38 51 38 19 0 39 13 68 45 64
70 60 94 -40 204 -83 92 -94 101 -134 101 -27 0 -104 -76 -107 -105 0 -11 -2
-24 -2 -30 -3 -20 -18 -35 -35 -35 -18 0 -71 -55 -71 -74 0 -6 -14 -19 -31
-29 -17 -9 -36 -31 -42 -47 -6 -17 -16 -30 -22 -30 -17 0 -65 -54 -65 -73 0
-10 -8 -20 -17 -24 -29 -10 -73 -55 -73 -75 0 -11 -7 -18 -19 -18 -23 0 -61
-45 -61 -71 0 -12 -7 -19 -19 -19 -21 0 -71 -53 -71 -76 0 -8 -5 -14 -12 -14
-19 0 -68 -52 -68 -72 0 -10 -7 -18 -15 -18 -18 0 -65 -50 -65 -69 0 -8 -12
-27 -26 -42 l-27 -28 -81 62 c-45 33 -163 144 -264 245 -178 179 -185 184
-217 178 -51 -10 -82 -40 -93 -91 -10 -45 -8 -65 10 -147 8 -41 14 -48 43 -58
78 -26 205 -124 287 -222 62 -75 40 -81 -74 -21 -185 98 -363 224 -540 385
-130 117 -174 144 -269 164 -81 17 -143 13 -224 -13 -71 -23 -116 -54 -215
-148 -150 -142 -438 -343 -603 -421 -61 -29 -65 -7 -11 59 62 76 164 158 251
202 l71 36 13 68 c6 38 9 85 5 105 -10 52 -52 94 -101 101 l-40 6 -105 -113
c-120 -129 -267 -267 -355 -332 l-60 -45 -22 21 c-13 12 -23 29 -23 39 0 25
-48 79 -71 79 -11 0 -18 4 -15 9 9 15 -38 76 -62 79 -13 2 -22 10 -22 21 0 19
-49 71 -68 71 -7 0 -12 6 -12 14 0 23 -50 76 -71 76 -12 0 -19 7 -19 19 0 26
-38 71 -61 71 -12 0 -19 7 -19 18 0 22 -54 82 -74 82 -9 0 -16 8 -16 18 0 20
-49 72 -68 72 -7 0 -12 8 -12 18 0 22 -47 69 -75 74 -14 2 -21 14 -25 38 -8
47 -23 73 -61 104 -54 45 -79 37 -167 -55z m1548 -474 c14 -17 9 -46 -21 -121
-16 -42 -31 -59 -77 -90 -70 -48 -211 -188 -277 -273 -27 -36 -68 -98 -91
-138 -35 -62 -52 -80 -105 -114 -96 -61 -284 -256 -359 -371 -58 -89 -67 -99
-120 -122 -69 -31 -86 -32 -100 -6 -19 36 2 74 107 189 133 145 253 291 335
407 41 59 92 114 139 154 84 70 343 324 427 419 71 79 114 100 142 66z m1694
-219 c121 -123 249 -245 284 -271 39 -30 84 -79 117 -126 78 -111 194 -253
334 -409 124 -138 148 -182 121 -215 -18 -22 -39 -19 -106 15 -46 23 -64 39
-82 72 -72 136 -279 355 -404 427 -36 21 -54 41 -78 86 -71 136 -213 300 -356
411 -65 51 -86 74 -103 113 -23 55 -28 117 -8 125 33 14 72 -18 281 -228z
m-876 55 c73 -22 101 -42 218 -148 112 -103 246 -202 383 -284 58 -35 107 -64
108 -64 2 -1 -26 -32 -62 -69 l-64 -67 -80 50 c-114 71 -211 144 -334 254 -78
70 -122 101 -163 116 -97 37 -228 23 -309 -33 -16 -11 -64 -51 -105 -89 -89
-82 -228 -187 -330 -251 l-74 -46 -63 62 c-35 34 -63 65 -63 69 0 3 46 33 103
66 132 78 277 187 397 297 129 120 199 154 317 155 34 1 88 -7 121 -18z m-997
-548 c487 -497 814 -836 814 -846 0 -26 -28 -8 -103 66 -43 42 -84 77 -91 77
-7 0 -10 4 -6 9 3 5 2 12 -3 15 -5 3 -9 -2 -9 -11 0 -9 9 -18 19 -21 10 -2 15
-9 11 -16 -3 -6 -3 -8 0 -5 11 9 160 -138 152 -150 -4 -7 -14 -10 -22 -7 -8 3
-12 2 -9 -3 3 -4 -9 -25 -27 -45 l-32 -37 -215 -2 -214 -2 -358 410 c-196 226
-357 415 -357 421 -1 14 113 70 160 79 33 6 36 9 47 61 12 57 60 174 71 174 4
0 81 -75 172 -167z m1963 115 c14 -29 31 -75 37 -103 6 -27 13 -55 15 -61 1
-6 23 -17 49 -23 49 -12 140 -54 148 -69 3 -4 -69 -93 -160 -197 -163 -188
-501 -577 -536 -617 -18 -21 -26 -21 -358 -22 -186 -1 -338 2 -337 5 7 17
1100 1139 1110 1139 3 0 18 -24 32 -52z m-1001 -202 c31 -51 57 -96 57 -100 0
-4 -16 -30 -35 -59 -19 -28 -35 -55 -35 -59 0 -4 16 -33 35 -63 l36 -56 -62
-99 c-54 -88 -64 -98 -74 -82 -7 9 -35 54 -64 99 l-51 83 35 54 c19 30 35 59
35 63 0 4 -16 33 -35 65 l-36 58 35 55 c20 30 47 73 61 95 14 22 29 40 33 40
4 -1 33 -42 65 -94z m-1388 -201 l57 -66 -38 -76 -39 -76 -5 -236 -5 -236 -65
0 -65 0 -3 245 c-3 269 5 346 45 425 21 42 50 85 58 85 2 0 28 -29 60 -65z
m2730 -19 l40 -78 0 -297 0 -296 -65 0 -65 0 -5 240 c-5 254 -9 273 -61 346
l-21 30 43 52 c24 29 51 60 59 70 8 9 19 16 25 14 5 -2 28 -38 50 -81z m823
-809 c-2 -7 -41 -121 -88 -255 l-85 -242 -142 0 -143 0 0 -55 0 -55 120 0 c66
0 120 -3 120 -6 0 -6 -139 -403 -172 -491 l-19 -53 -2031 0 c-1620 0 -2029 3
-2025 13 2 6 43 123 90 258 48 136 90 254 93 263 6 15 22 17 118 15 l111 -2 3
57 3 56 -97 0 c-88 0 -96 2 -89 18 4 9 41 112 82 227 41 116 80 222 85 238
l10 27 2030 0 c1634 0 2029 -2 2026 -13z m-3628 -1298 c-22 -18 -22 -19 -3
-10 12 6 25 16 28 21 3 6 21 10 38 10 l32 -1 -27 -24 c-16 -13 -28 -29 -28
-34 0 -6 -8 -8 -17 -5 -15 5 -16 4 -3 -5 12 -8 22 -2 49 29 l34 40 329 0 c181
-1 328 -4 326 -9 -2 -4 -230 -269 -507 -588 l-505 -580 -283 -58 c-156 -31
-285 -56 -287 -54 -2 2 20 143 49 313 l53 308 154 157 c84 86 232 236 328 334
l174 177 45 0 46 0 -25 -21z m2692 -16 c21 -20 38 -33 38 -29 0 5 8 2 18 -5
15 -13 16 -12 3 3 -7 10 -16 17 -20 15 -3 -2 -19 10 -35 25 l-29 28 31 0 c18
0 44 -11 64 -27 l33 -27 -24 27 -24 27 42 0 c42 0 44 -2 250 -212 114 -117
261 -269 327 -337 l119 -123 53 -306 c29 -167 51 -307 48 -309 -5 -5 -553 104
-567 112 -5 3 -122 137 -261 297 -579 667 -734 845 -746 860 -12 15 13 17 314
18 l328 0 38 -37z m-661 -149 c30 -33 39 -60 15 -51 -8 3 -18 -5 -25 -19 -15
-34 -14 -36 10 -24 24 13 73 5 89 -15 19 -23 -44 -56 -101 -53 -32 1 -52 -3
-63 -14 -22 -23 -21 -25 15 -26 37 -1 89 -20 89 -33 0 -29 -110 -50 -151 -29
-15 8 -24 6 -41 -10 l-22 -20 23 0 c24 0 101 -38 101 -50 0 -12 -50 -30 -81
-30 -16 0 -47 9 -67 19 -37 19 -38 19 -61 0 l-23 -19 26 0 c33 0 103 -59 84
-71 -27 -18 -95 -9 -132 16 -27 18 -44 23 -63 19 l-26 -7 31 -16 c37 -20 76
-67 66 -82 -4 -7 -24 -9 -51 -6 -35 4 -54 13 -84 43 l-38 37 -61 -18 c-33 -10
-60 -21 -60 -24 0 -3 21 -19 45 -36 50 -33 52 -37 30 -55 -13 -11 -20 -9 -43
12 -15 14 -39 33 -54 43 -27 16 -29 16 -55 0 -16 -10 -40 -29 -55 -43 -23 -21
-30 -23 -43 -12 -22 18 -20 22 30 55 24 17 45 33 45 36 0 3 -27 14 -60 24
l-61 18 -38 -37 c-30 -30 -49 -39 -84 -43 -24 -3 -47 -1 -50 4 -10 15 35 71
67 85 l29 12 -27 9 c-22 7 -32 5 -51 -13 -27 -25 -111 -39 -140 -23 -14 8 -12
14 20 41 20 18 47 32 61 32 l26 0 -23 19 c-23 18 -24 18 -59 0 -19 -11 -49
-19 -67 -19 -33 0 -83 18 -83 30 0 12 77 50 101 50 l23 0 -22 20 c-17 16 -26
18 -41 10 -41 -21 -151 0 -151 29 0 13 58 34 91 34 16 0 29 4 29 7 0 19 -35
34 -75 31 -48 -3 -105 21 -105 45 0 22 49 38 83 26 31 -12 31 -12 16 22 -7 14
-17 22 -25 19 -8 -3 -14 -2 -14 2 0 9 100 129 111 133 5 2 9 -11 9 -30 0 -33
-19 -72 -47 -95 -13 -10 -12 -15 1 -40 15 -27 15 -27 16 -4 0 30 37 91 55 91
29 0 32 -72 5 -124 -16 -32 -17 -43 -7 -60 10 -19 12 -18 17 19 6 42 26 85 38
85 29 0 43 -91 23 -144 -10 -25 -9 -32 6 -48 18 -17 18 -17 15 20 -4 44 13 95
31 90 6 -2 21 -21 31 -42 16 -32 17 -46 9 -82 -9 -40 -8 -45 13 -59 13 -9 24
-11 24 -6 0 5 -4 13 -10 16 -13 8 -13 85 0 105 24 38 88 -80 74 -136 -4 -14 0
-23 12 -28 23 -9 28 -2 15 22 -14 27 -14 102 0 102 25 0 77 -66 83 -106 7 -41
8 -41 82 -66 l74 -24 73 24 74 24 12 49 c12 45 56 99 82 99 15 0 10 -94 -7
-118 -15 -22 -15 -22 10 -10 23 10 26 17 26 64 0 46 5 59 30 86 25 28 31 31
40 18 6 -8 9 -38 7 -67 -3 -46 -2 -51 14 -43 14 8 15 16 7 55 -8 37 -6 52 9
82 10 20 24 39 30 41 18 5 35 -46 31 -90 -3 -38 -3 -38 16 -18 17 16 18 23 8
45 -21 46 -8 145 19 145 15 0 39 -58 39 -91 0 -31 0 -32 20 -14 19 17 19 18 1
44 -10 14 -22 37 -26 49 -10 33 3 92 20 92 20 0 55 -54 55 -87 l1 -28 15 28
c13 25 14 30 1 40 -29 24 -47 63 -47 102 l1 40 30 -35 c17 -19 44 -49 60 -66z
m-1580 -406 c41 -38 57 -48 457 -294 373 -231 375 -232 444 -239 89 -10 136
10 393 169 132 82 287 178 345 214 138 85 199 126 231 156 26 24 28 24 43 7
24 -27 20 -35 -36 -79 -49 -36 -107 -73 -483 -305 -71 -44 -164 -101 -205
-126 -143 -89 -212 -109 -314 -90 -78 14 -78 14 -478 260 -335 206 -467 295
-468 313 0 8 29 46 35 46 2 0 18 -14 36 -32z m-78 -147 c34 -26 206 -137 382
-246 176 -108 353 -218 394 -243 130 -81 234 -101 337 -66 26 9 223 124 438
256 406 250 439 272 494 322 l34 31 59 -65 c32 -36 57 -69 56 -75 -7 -20 -138
-122 -229 -176 -51 -31 -226 -139 -388 -239 -465 -288 -459 -286 -589 -278
-98 6 -141 25 -385 177 -105 65 -294 183 -421 261 -220 135 -313 199 -348 238
-16 17 -13 22 40 85 31 37 58 67 60 67 2 0 31 -22 66 -49z"/>
<path d="M2065 4678 c39 -37 72 -65 74 -63 4 5 -104 106 -128 119 -9 5 16 -20
54 -56z"/>
<path d="M2145 4600 c-6 -10 1 -14 18 -11 4 1 11 -9 16 -21 5 -13 24 -36 42
-53 l34 -30 -34 37 c-18 20 -31 40 -28 45 3 4 -6 16 -18 26 -15 10 -26 13 -30
7z"/>
<path d="M1901 4512 c35 -46 72 -95 81 -110 10 -15 20 -25 22 -22 2 3 14 -4
27 -15 l24 -20 -19 22 c-10 13 -23 20 -27 17 -5 -3 -9 1 -9 9 0 9 -30 50 -66
94 -94 111 -108 122 -33 25z"/>
<path d="M2240 4525 c19 -19 36 -35 39 -35 3 0 -10 16 -29 35 -19 19 -36 35
-39 35 -3 0 10 -16 29 -35z"/>
<path d="M2260 4477 c0 -2 15 -16 33 -33 l32 -29 -29 33 c-28 30 -36 37 -36
29z"/>
<path d="M2342 4435 c15 -16 29 -27 31 -24 3 2 -10 15 -27 28 l-31 24 27 -28z"/>
<path d="M2360 4375 c13 -14 26 -25 28 -25 3 0 -5 11 -18 25 -13 14 -26 25
-28 25 -3 0 5 -11 18 -25z"/>
<path d="M2400 4386 c0 -2 8 -10 18 -17 15 -13 16 -12 3 4 -13 16 -21 21 -21
13z"/>
<path d="M2035 4327 c17 -20 43 -52 59 -70 l28 -32 -26 34 c-18 22 -25 40 -21
55 5 17 4 18 -4 6 -10 -14 -16 -7 -11 15 1 6 -2 7 -6 2 -4 -4 -17 1 -28 10
-11 10 -7 1 9 -20z"/>
<path d="M2420 4326 c0 -2 8 -10 18 -17 15 -13 16 -12 3 4 -13 16 -21 21 -21
13z"/>
<path d="M2480 4315 c8 -11 26 -29 40 -40 55 -43 159 -148 155 -156 -3 -4 -1
-10 4 -13 20 -13 3 26 -25 55 -44 47 -191 177 -174 154z"/>
<path d="M2110 4273 c13 -18 25 -33 27 -33 8 0 -17 38 -33 51 -11 9 -9 2 6
-18z"/>
<path d="M2460 4296 c0 -2 8 -10 18 -17 15 -13 16 -12 3 4 -13 16 -21 21 -21
13z"/>
<path d="M2530 4235 c19 -19 36 -35 39 -35 3 0 -10 16 -29 35 -19 19 -36 35
-39 35 -3 0 10 -16 29 -35z"/>
<path d="M2131 4203 c7 -12 15 -20 18 -17 3 2 -3 12 -13 22 -17 16 -18 16 -5
-5z"/>
<path d="M2186 4178 c10 -14 21 -24 23 -22 3 3 -6 15 -18 27 l-24 22 19 -27z"/>
<path d="M2590 4131 c30 -29 71 -67 90 -85 19 -17 36 -35 38 -39 3 -11 16 -10
20 2 2 6 -1 11 -6 11 -6 0 -43 30 -82 68 -40 37 -82 73 -94 81 -11 8 4 -9 34
-38z"/>
<path d="M2625 4150 c10 -11 20 -20 23 -20 3 0 -3 9 -13 20 -10 11 -20 20 -23
20 -3 0 3 -9 13 -20z"/>
<path d="M2225 4130 c19 -34 86 -129 95 -135 6 -4 -11 24 -37 62 -46 68 -74
103 -58 73z"/>
<path d="M2720 4096 c0 -2 8 -10 18 -17 15 -13 16 -12 3 4 -13 16 -21 21 -21
13z"/>
<path d="M2226 4077 c3 -10 9 -15 12 -12 3 3 0 11 -7 18 -10 9 -11 8 -5 -6z"/>
<path d="M2256 4035 c4 -8 11 -15 16 -15 6 0 5 6 -2 15 -7 8 -14 15 -16 15 -2
0 -1 -7 2 -15z"/>
<path d="M2300 3980 c11 -16 26 -33 32 -36 7 -4 -1 9 -16 29 -34 44 -46 50
-16 7z"/>
<path d="M2350 4006 c0 -2 8 -10 18 -17 15 -13 16 -12 3 4 -13 16 -21 21 -21
13z"/>
<path d="M2330 3976 c0 -2 8 -10 18 -17 15 -13 16 -12 3 4 -13 16 -21 21 -21
13z"/>
<path d="M2774 3971 c4 -5 1 -12 -4 -14 -6 -3 -5 -4 2 -3 7 2 22 -4 33 -13 14
-11 12 -7 -4 12 -24 26 -38 36 -27 18z"/>
<path d="M2452 3875 c40 -52 75 -90 76 -85 4 10 -133 180 -144 180 -2 0 28
-43 68 -95z"/>
<path d="M2367 3930 c12 -23 95 -130 100 -130 5 0 -48 74 -83 115 -14 17 -22
23 -17 15z"/>
<path d="M2780 3936 c0 -2 8 -10 18 -17 15 -13 16 -12 3 4 -13 16 -21 21 -21
13z"/>
<path d="M2841 3911 c7 -10 21 -24 33 -31 15 -9 12 -3 -8 19 -34 35 -41 39
-25 12z"/>
<path d="M2375 3880 c10 -11 20 -20 23 -20 3 0 -3 9 -13 20 -10 11 -20 20 -23
20 -3 0 3 -9 13 -20z"/>
<path d="M2850 3867 c8 -7 21 -19 29 -27 11 -13 12 -12 3 6 -7 12 -19 24 -29
28 -16 5 -16 4 -3 -7z"/>
<path d="M2400 3846 c0 -2 8 -10 18 -17 15 -13 16 -12 3 4 -13 16 -21 21 -21
13z"/>
<path d="M2444 3793 c16 -20 36 -23 36 -6 0 4 -3 3 -7 0 -3 -4 -16 1 -27 10
-21 18 -21 18 -2 -4z"/>
<path d="M4045 4713 c-27 -25 -80 -72 -118 -105 -37 -32 -62 -58 -55 -58 7 0
-10 -24 -37 -52 l-50 -53 57 54 c31 30 56 57 54 60 -5 7 20 31 26 26 2 -3 44
36 93 85 96 97 111 118 30 43z"/>
<path d="M4156 4493 c-36 -43 -66 -84 -66 -91 0 -7 -4 -11 -9 -7 -5 3 -12 1
-15 -4 -4 -5 0 -8 8 -7 7 1 37 33 66 71 29 39 62 80 73 93 11 12 18 22 14 22
-3 0 -35 -35 -71 -77z"/>
<path d="M3805 4498 l-40 -43 43 40 c39 36 47 45 39 45 -2 0 -21 -19 -42 -42z"/>
<path d="M3724 4428 l-29 -33 33 29 c30 28 37 36 29 36 -2 0 -16 -15 -33 -32z"/>
<path d="M3695 4363 c-22 -19 -31 -31 -20 -25 19 9 74 63 64 62 -2 -1 -22 -17
-44 -37z"/>
<path d="M3634 4348 l-19 -23 23 19 c21 18 27 26 19 26 -2 0 -12 -10 -23 -22z"/>
<path d="M4060 4355 c-7 -8 -16 -13 -20 -10 -4 2 -16 -5 -26 -18 l-19 -22 23
19 c31 27 27 11 -9 -35 -17 -21 -28 -39 -25 -39 2 0 26 27 51 60 25 33 44 60
42 60 -3 0 -10 -7 -17 -15z"/>
<path d="M3589 4313 c-8 -10 -41 -42 -73 -71 -32 -29 -56 -56 -52 -59 3 -4 6
-1 6 5 0 7 5 12 11 12 6 0 8 -7 5 -17 -6 -15 -4 -15 14 2 25 22 25 26 3 19
-10 -3 10 21 45 55 55 54 69 71 59 71 -1 0 -9 -8 -18 -17z"/>
<path d="M3595 4282 c-11 -9 -27 -26 -35 -37 -8 -11 3 -4 23 14 33 31 42 42
35 41 -2 -1 -12 -8 -23 -18z"/>
<path d="M3979 4283 c-13 -16 -12 -17 4 -4 16 13 21 21 13 21 -2 0 -10 -8 -17
-17z"/>
<path d="M3922 4175 c-29 -45 -22 -45 12 0 15 19 23 35 19 35 -4 0 -18 -16
-31 -35z"/>
<path d="M3893 4188 c-15 -20 -25 -38 -20 -38 3 0 12 11 21 25 17 26 16 35 -1
13z"/>
<path d="M3510 4157 c-20 -17 -69 -62 -109 -98 -40 -37 -69 -69 -64 -72 5 -3
56 41 113 99 101 100 132 138 60 71z m-140 -141 c0 -2 -8 -10 -17 -17 -16 -13
-17 -12 -4 4 13 16 21 21 21 13z"/>
<path d="M3405 4138 c-22 -24 -34 -38 -26 -31 7 6 19 9 25 7 7 -3 23 8 36 23
l25 28 -26 -22 c-37 -33 -48 -28 -14 7 16 17 27 30 24 30 -3 0 -23 -19 -44
-42z"/>
<path d="M3344 4079 c-8 -14 14 -19 25 -6 8 10 7 14 -5 14 -8 0 -17 -4 -20 -8z"/>
<path d="M3849 4073 c-13 -16 -12 -17 4 -4 16 13 21 21 13 21 -2 0 -10 -8 -17
-17z"/>
<path d="M3217 3959 c-93 -93 -89 -99 8 -10 22 20 54 48 70 62 27 23 43 49 30
49 -3 0 -52 -46 -108 -101z"/>
<path d="M3814 4028 l-19 -23 23 19 c21 18 27 26 19 26 -2 0 -12 -10 -23 -22z"/>
<path d="M3719 4003 c-13 -16 -12 -17 4 -4 16 13 21 21 13 21 -2 0 -10 -8 -17
-17z"/>
<path d="M3620 3880 c-44 -55 -77 -100 -72 -100 5 0 44 45 86 100 42 55 75
100 73 100 -3 0 -42 -45 -87 -100z"/>
<path d="M3710 3933 c-67 -94 -82 -117 -68 -105 8 6 17 9 20 6 3 -3 19 12 35
33 39 50 50 68 35 59 -16 -10 -15 0 4 29 28 44 9 27 -26 -22z m-15 -57 c-15
-20 -29 -36 -32 -36 -6 0 18 43 35 63 27 31 25 9 -3 -27z"/>
<path d="M3760 3960 c-6 -11 -8 -20 -6 -20 3 0 10 9 16 20 6 11 8 20 6 20 -3
0 -10 -9 -16 -20z"/>
<path d="M3264 3938 l-29 -33 33 29 c30 28 37 36 29 36 -2 0 -16 -15 -33 -32z"/>
<path d="M3230 3873 l-95 -98 98 95 c53 52 97 96 97 97 0 8 -12 -4 -100 -94z"/>
<path d="M3172 3860 c-18 -17 -29 -30 -24 -30 5 0 21 14 37 30 37 38 30 38
-13 0z"/>
<path d="M3099 3793 l-24 -28 28 24 c25 23 32 31 24 31 -2 0 -14 -12 -28 -27z"/>
<path d="M3645 3810 c-4 -6 -10 -8 -15 -5 -4 3 -13 -1 -19 -8 -17 -22 16 -17
36 5 9 10 13 18 10 18 -3 0 -9 -5 -12 -10z"/>
<path d="M2839 3382 l-256 -2 -12 -41 c-7 -23 -14 -46 -17 -53 -3 -8 21 -11
83 -10 49 1 91 0 95 -2 3 -2 0 -21 -8 -42 -8 -20 -54 -146 -103 -279 l-88
-243 66 0 67 0 33 93 c18 50 65 179 104 285 l70 194 95 -3 94 -3 19 50 c11 27
18 51 16 54 -1 3 -117 4 -258 2z"/>
<path d="M3411 3380 l-253 -5 -19 -50 c-10 -27 -19 -51 -19 -53 0 -1 43 0 95
3 52 3 95 3 95 0 0 -3 -45 -128 -100 -279 -55 -151 -100 -277 -100 -280 0 -3
29 -6 64 -6 l63 0 16 43 c9 23 53 143 98 267 44 124 86 233 91 243 8 16 21 18
101 16 l92 -3 18 48 c10 27 16 52 15 55 -2 3 -117 4 -257 1z"/>
<path d="M1500 3376 c0 -3 -216 -598 -235 -648 -7 -17 4 -18 142 -18 207 0
288 24 368 107 66 68 85 174 40 218 -13 14 -29 25 -35 25 -21 0 -9 16 30 38
89 50 139 184 90 237 -13 14 -40 29 -59 35 -33 9 -341 15 -341 6z m261 -106
c43 -24 6 -120 -56 -146 -34 -14 -165 -20 -165 -8 0 8 49 144 56 155 7 13 141
11 165 -1z m-81 -273 c52 -26 30 -117 -39 -159 -27 -17 -55 -23 -123 -26 -48
-3 -88 -2 -88 0 0 4 34 102 65 186 6 16 151 16 185 -1z"/>
<path d="M2181 3273 c-39 -60 -137 -202 -217 -318 -80 -115 -149 -218 -155
-227 -9 -16 -4 -18 55 -18 l65 0 53 85 53 85 113 0 114 0 -7 -85 -7 -85 69 0
69 0 12 298 c7 163 12 314 12 335 l0 37 -78 0 -78 0 -73 -107z m119 5 c0 -2
-7 -66 -15 -143 -8 -77 -15 -142 -15 -145 0 -3 -35 -4 -77 -3 -43 1 -77 6 -76
10 1 5 35 62 77 126 41 65 78 127 81 138 4 10 11 19 16 19 5 0 9 -1 9 -2z"/>
<path d="M3780 3369 c0 -10 -195 -552 -226 -627 l-13 -32 205 2 206 3 19 50
c10 28 19 51 19 53 0 1 -61 2 -135 2 -74 0 -135 3 -135 8 0 6 173 480 195 535
6 15 0 17 -64 17 -45 0 -71 -4 -71 -11z"/>
<path d="M4206 3077 c-60 -166 -116 -317 -123 -334 l-13 -33 213 0 212 0 18
49 c9 27 17 51 17 55 0 3 -63 6 -140 6 -82 0 -140 4 -140 9 0 6 14 47 30 93
l30 83 113 -3 c123 -3 125 -2 145 53 5 17 13 37 16 45 5 13 -10 15 -109 12
-94 -3 -115 -1 -115 10 0 8 11 46 24 84 l24 69 138 2 c75 1 140 6 144 10 4 4
14 27 23 51 l17 42 -208 0 -207 0 -109 -303z"/>
<path d="M2284 2298 l-19 -23 23 19 c21 18 27 26 19 26 -2 0 -12 -10 -23 -22z"/>
<path d="M2224 2288 l-19 -23 23 19 c21 18 27 26 19 26 -2 0 -12 -10 -23 -22z"/>
<path d="M1596 2214 c-31 -26 -56 -49 -56 -52 0 -5 24 14 72 57 38 34 45 21
12 -20 -26 -32 -25 -31 14 6 47 44 49 47 25 38 -11 -4 -14 -3 -9 5 13 21 0 13
-58 -34z"/>
<path d="M2189 2243 c-13 -16 -12 -17 4 -4 9 7 17 15 17 17 0 8 -8 3 -21 -13z"/>
<path d="M2224 2218 c-30 -34 -47 -58 -42 -58 3 0 19 18 37 40 34 43 38 55 5
18z"/>
<path d="M2158 2203 c-18 -21 -31 -43 -25 -43 2 0 13 14 25 30 25 33 24 41 0
13z"/>
<path d="M1499 2133 l-24 -28 28 24 c25 23 32 31 24 31 -2 0 -14 -12 -28 -27z"/>
<path d="M1549 2123 l-24 -28 28 24 c25 23 32 31 24 31 -2 0 -14 -12 -28 -27z"/>
<path d="M2110 2130 c-6 -11 -8 -20 -6 -20 3 0 10 9 16 20 6 11 8 20 6 20 -3
0 -10 -9 -16 -20z"/>
<path d="M2139 2113 l-24 -28 28 24 c25 23 32 31 24 31 -2 0 -14 -12 -28 -27z"/>
<path d="M2001 2041 c-44 -52 -48 -61 -29 -61 6 0 9 3 5 6 -3 3 3 16 14 28 27
27 62 76 56 76 -3 0 -24 -22 -46 -49z"/>
<path d="M2094 2058 l-19 -23 23 19 c21 18 27 26 19 26 -2 0 -12 -10 -23 -22z"/>
<path d="M1394 2038 l-19 -23 25 20 c14 11 27 21 29 22 2 2 0 3 -6 3 -5 0 -18
-10 -29 -22z"/>
<path d="M2011 1968 c-35 -53 -37 -57 -11 -28 42 46 64 79 58 86 -3 3 -24 -23
-47 -58z"/>
<path d="M1304 1948 l-29 -33 33 29 c17 17 32 31 32 33 0 8 -8 1 -36 -29z"/>
<path d="M1394 1958 l-19 -23 23 19 c21 18 27 26 19 26 -2 0 -12 -10 -23 -22z"/>
<path d="M1896 1922 c-21 -23 -37 -45 -34 -47 2 -3 19 13 37 35 17 22 37 39
43 37 6 -1 13 5 15 13 4 12 3 12 -5 1 -5 -7 -11 -9 -13 -5 -2 5 -22 -10 -43
-34z"/>
<path d="M1339 1903 l-24 -28 28 24 c25 23 32 31 24 31 -2 0 -14 -12 -28 -27z"/>
<path d="M1909 1897 c-27 -35 -78 -118 -62 -102 9 10 71 97 87 123 14 23 1 12
-25 -21z"/>
<path d="M1239 1883 l-24 -28 28 24 c25 23 32 31 24 31 -2 0 -14 -12 -28 -27z"/>
<path d="M1814 1829 c-16 -16 -22 -28 -14 -24 13 5 56 55 47 55 -2 0 -16 -14
-33 -31z"/>
<path d="M1275 1840 c-3 -5 -1 -10 4 -10 6 0 11 5 11 10 0 6 -2 10 -4 10 -3 0
-8 -4 -11 -10z"/>
<path d="M1161 1809 c-13 -11 -22 -22 -19 -24 2 -3 15 6 28 20 28 30 24 32 -9
4z"/>
<path d="M1245 1809 c-4 -6 -5 -12 -2 -15 2 -3 7 2 10 11 7 17 1 20 -8 4z"/>
<path d="M1199 1753 c-13 -16 -12 -17 4 -4 9 7 17 15 17 17 0 8 -8 3 -21 -13z"/>
<path d="M1733 1738 c-11 -13 -24 -30 -28 -38 -8 -16 -6 -14 34 33 14 15 22
27 19 27 -2 0 -14 -10 -25 -22z"/>
<path d="M1071 1724 c-7 -8 -11 -17 -9 -20 3 -2 13 5 23 16 10 11 14 20 9 20
-5 -1 -15 -8 -23 -16z"/>
<path d="M1159 1713 c-13 -16 -12 -17 4 -4 9 7 17 15 17 17 0 8 -8 3 -21 -13z"/>
<path d="M1779 1713 c-13 -16 -12 -17 4 -4 9 7 17 15 17 17 0 8 -8 3 -21 -13z"/>
<path d="M1119 1673 c-13 -16 -12 -17 4 -4 9 7 17 15 17 17 0 8 -8 3 -21 -13z"/>
<path d="M1004 1648 l-19 -23 23 19 c21 18 27 26 19 26 -2 0 -12 -10 -23 -22z"/>
<path d="M1653 1648 c-11 -13 -24 -30 -28 -38 -8 -16 -6 -14 34 33 14 15 22
27 19 27 -2 0 -14 -10 -25 -22z"/>
<path d="M1070 1625 c-13 -14 -22 -27 -19 -29 2 -2 14 10 27 25 29 36 24 38
-8 4z"/>
<path d="M982 1590 c0 -14 2 -19 5 -12 2 6 2 18 0 25 -3 6 -5 1 -5 -13z"/>
<path d="M1571 1555 c-17 -20 -31 -39 -31 -42 0 -4 3 -3 8 3 4 5 20 24 36 42
17 17 27 32 24 32 -3 0 -20 -16 -37 -35z"/>
<path d="M1654 1558 l-19 -23 23 19 c21 18 27 26 19 26 -2 0 -12 -10 -23 -22z"/>
<path d="M971 1534 c0 -11 3 -14 6 -6 3 7 2 16 -1 19 -3 4 -6 -2 -5 -13z"/>
<path d="M1609 1503 l-24 -28 28 24 c25 23 32 31 24 31 -2 0 -14 -12 -28 -27z"/>
<path d="M1031 1504 c0 -11 3 -14 6 -6 3 7 2 16 -1 19 -3 4 -6 -2 -5 -13z"/>
<path d="M1474 1443 c-73 -86 -102 -125 -50 -68 54 58 109 125 104 125 -2 0
-26 -26 -54 -57z"/>
<path d="M961 1474 c0 -11 3 -14 6 -6 3 7 2 16 -1 19 -3 4 -6 -2 -5 -13z"/>
<path d="M1021 1454 c0 -11 3 -14 6 -6 3 7 2 16 -1 19 -3 4 -6 -2 -5 -13z"/>
<path d="M1556 1442 l-19 -27 24 22 c12 12 21 24 18 27 -2 2 -13 -8 -23 -22z"/>
<path d="M951 1404 c0 -11 3 -14 6 -6 3 7 2 16 -1 19 -3 4 -6 -2 -5 -13z"/>
<path d="M941 1334 c0 -11 3 -14 6 -6 3 7 2 16 -1 19 -3 4 -6 -2 -5 -13z"/>
<path d="M1454 1318 l-19 -23 23 19 c21 18 27 26 19 26 -2 0 -12 -10 -23 -22z"/>
<path d="M991 1301 c-1 -8 -11 -26 -23 -40 l-22 -26 28 26 c16 15 26 33 23 40
-4 11 -6 11 -6 0z"/>
<path d="M932 1280 c0 -14 2 -19 5 -12 2 6 2 18 0 25 -3 6 -5 1 -5 -13z"/>
<path d="M1278 1273 c7 -3 16 -2 19 1 4 3 -2 6 -13 5 -11 0 -14 -3 -6 -6z"/>
<path d="M1238 1263 c7 -3 16 -2 19 1 4 3 -2 6 -13 5 -11 0 -14 -3 -6 -6z"/>
<path d="M1389 1243 l-24 -28 28 24 c25 23 32 31 24 31 -2 0 -14 -12 -28 -27z"/>
<path d="M920 1215 c0 -8 2 -15 4 -15 2 0 6 7 10 15 3 8 1 15 -4 15 -6 0 -10
-7 -10 -15z"/>
<path d="M1068 1223 c7 -3 16 -2 19 1 4 3 -2 6 -13 5 -11 0 -14 -3 -6 -6z"/>
<path d="M1029 1203 c-13 -16 -12 -17 4 -4 16 13 21 21 13 21 -2 0 -10 -8 -17
-17z"/>
<path d="M1338 1213 c7 -3 16 -2 19 1 4 3 -2 6 -13 5 -11 0 -14 -3 -6 -6z"/>
<path d="M1288 1203 c6 -2 18 -2 25 0 6 3 1 5 -13 5 -14 0 -19 -2 -12 -5z"/>
<path d="M1238 1193 c7 -3 16 -2 19 1 4 3 -2 6 -13 5 -11 0 -14 -3 -6 -6z"/>
<path d="M1128 1173 c7 -3 16 -2 19 1 4 3 -2 6 -13 5 -11 0 -14 -3 -6 -6z"/>
<path d="M1078 1163 c7 -3 16 -2 19 1 4 3 -2 6 -13 5 -11 0 -14 -3 -6 -6z"/>
<path d="M985 1150 c-3 -5 -1 -10 4 -10 6 0 11 5 11 10 0 6 -2 10 -4 10 -3 0
-8 -4 -11 -10z"/>
<path d="M3789 2302 c5 -10 18 -25 27 -33 11 -9 9 -2 -6 19 -26 35 -36 42 -21
14z"/>
<path d="M3860 2275 c13 -14 26 -25 28 -25 3 0 -5 11 -18 25 -13 14 -26 25
-28 25 -3 0 5 -11 18 -25z"/>
<path d="M4443 2243 c4 -6 26 -26 49 -45 23 -18 39 -28 35 -21 -4 6 -26 26
-49 45 -23 18 -39 28 -35 21z"/>
<path d="M3890 2236 c0 -2 8 -10 18 -17 15 -13 16 -12 3 4 -13 16 -21 21 -21
13z"/>
<path d="M4450 2203 c18 -24 35 -43 37 -43 7 0 -35 56 -54 71 -9 8 -2 -5 17
-28z"/>
<path d="M3899 2158 c24 -32 45 -58 48 -58 7 0 -59 89 -76 103 -8 7 5 -14 28
-45z"/>
<path d="M3930 2180 c6 -11 13 -20 16 -20 2 0 0 9 -6 20 -6 11 -13 20 -16 20
-2 0 0 -9 6 -20z"/>
<path d="M4565 2141 c19 -22 55 -46 55 -38 0 3 -17 17 -37 33 -31 23 -34 24
-18 5z"/>
<path d="M4510 2137 c0 -2 15 -16 33 -33 l32 -29 -29 33 c-28 30 -36 37 -36
29z"/>
<path d="M4046 2078 c29 -50 78 -113 85 -111 4 2 17 -9 28 -24 12 -14 21 -21
21 -16 0 5 -11 20 -25 33 -14 13 -25 20 -25 16 0 -5 -18 19 -41 53 -22 33 -43
61 -45 61 -3 0 -2 -6 2 -12z"/>
<path d="M4660 2055 c19 -19 36 -35 39 -35 3 0 -10 16 -29 35 -19 19 -36 35
-39 35 -3 0 10 -16 29 -35z"/>
<path d="M4600 2045 c13 -14 26 -25 28 -25 3 0 -5 11 -18 25 -13 14 -26 25
-28 25 -3 0 5 -11 18 -25z"/>
<path d="M4041 1988 c30 -35 56 -63 58 -62 4 4 -48 76 -62 85 -5 3 -8 10 -8
15 1 5 -2 9 -6 9 -5 0 -14 4 -22 9 -8 5 10 -20 40 -56z"/>
<path d="M4660 1987 c0 -3 16 -23 37 -44 20 -21 30 -29 22 -18 -18 27 -59 69
-59 62z"/>
<path d="M4747 1969 c7 -7 15 -10 18 -7 3 3 -2 9 -12 12 -14 6 -15 5 -6 -5z"/>
<path d="M4790 1936 c0 -2 8 -10 18 -17 15 -13 16 -12 3 4 -13 16 -21 21 -21
13z"/>
<path d="M4159 1902 c5 -10 18 -25 27 -33 11 -9 9 -2 -6 19 -26 35 -36 42 -21
14z"/>
<path d="M4190 1906 c0 -2 8 -10 18 -17 15 -13 16 -12 3 4 -13 16 -21 21 -21
13z"/>
<path d="M4740 1904 c0 -6 17 -26 38 -45 l37 -34 -35 40 c-19 22 -36 42 -37
44 -2 2 -3 0 -3 -5z"/>
<path d="M4838 1882 c9 -10 19 -17 21 -16 6 5 -20 34 -30 34 -5 0 -1 -8 9 -18z"/>
<path d="M4870 1856 c0 -2 8 -10 18 -17 15 -13 16 -12 3 4 -13 16 -21 21 -21
13z"/>
<path d="M4221 1816 c12 -20 23 -36 25 -36 7 0 -25 58 -36 65 -5 3 -1 -10 11
-29z"/>
<path d="M4285 1800 c21 -22 41 -40 44 -40 3 0 -13 18 -34 40 -21 22 -41 40
-44 40 -3 0 13 -18 34 -40z"/>
<path d="M4847 1787 c15 -18 39 -42 53 -52 14 -10 3 5 -25 34 -56 58 -71 68
-28 18z"/>
<path d="M4918 1802 c9 -10 19 -17 21 -16 6 5 -20 34 -30 34 -5 0 -1 -8 9 -18z"/>
<path d="M4950 1776 c0 -2 8 -10 18 -17 15 -13 16 -12 3 4 -13 16 -21 21 -21
13z"/>
<path d="M4270 1746 c0 -2 8 -10 18 -17 15 -13 16 -12 3 4 -13 16 -21 21 -21
13z"/>
<path d="M4351 1724 c13 -17 26 -30 28 -27 3 2 -8 16 -24 31 l-28 27 24 -31z"/>
<path d="M4998 1722 c9 -10 19 -17 21 -16 6 5 -20 34 -30 34 -5 0 -1 -8 9 -18z"/>
<path d="M5030 1696 c0 -2 8 -10 18 -17 15 -13 16 -12 3 4 -13 16 -21 21 -21
13z"/>
<path d="M4390 1688 c0 -4 16 -25 35 -48 19 -23 35 -38 35 -33 -1 9 -70 90
-70 81z"/>
<path d="M4940 1686 c0 -2 8 -10 18 -17 15 -13 16 -12 3 4 -13 16 -21 21 -21
13z"/>
<path d="M4320 1677 c0 -2 14 -16 32 -33 31 -29 31 -29 12 -2 -16 23 -44 45
-44 35z"/>
<path d="M5067 1652 c7 -4 16 -19 22 -32 9 -22 10 -23 10 -4 1 21 -16 44 -33
44 -7 0 -6 -4 1 -8z"/>
<path d="M4980 1646 c0 -2 8 -10 18 -17 15 -13 16 -12 3 4 -13 16 -21 21 -21
13z"/>
<path d="M4395 1590 c10 -11 20 -20 23 -20 3 0 -3 9 -13 20 -10 11 -20 20 -23
20 -3 0 3 -9 13 -20z"/>
<path d="M4510 1545 c19 -19 36 -35 39 -35 3 0 -10 16 -29 35 -19 19 -36 35
-39 35 -3 0 10 -16 29 -35z"/>
<path d="M5102 1550 c0 -14 2 -19 5 -12 2 6 2 18 0 25 -3 6 -5 1 -5 -13z"/>
<path d="M5041 1524 c0 -11 3 -14 6 -6 3 7 2 16 -1 19 -3 4 -6 -2 -5 -13z"/>
<path d="M5112 1495 c0 -16 2 -22 5 -12 2 9 2 23 0 30 -3 6 -5 -1 -5 -18z"/>
<path d="M4460 1506 c0 -2 8 -10 18 -17 15 -13 16 -12 3 4 -13 16 -21 21 -21
13z"/>
<path d="M4550 1497 c0 -2 15 -16 33 -33 l32 -29 -29 33 c-28 30 -36 37 -36
29z"/>
<path d="M4530 1425 c13 -14 26 -25 28 -25 3 0 -5 11 -18 25 -13 14 -26 25
-28 25 -3 0 5 -11 18 -25z"/>
<path d="M5122 1430 c0 -14 2 -19 5 -12 2 6 2 18 0 25 -3 6 -5 1 -5 -13z"/>
<path d="M5062 1420 c0 -14 2 -19 5 -12 2 6 2 18 0 25 -3 6 -5 1 -5 -13z"/>
<path d="M4660 1375 c13 -14 26 -25 28 -25 3 0 -5 11 -18 25 -13 14 -26 25
-28 25 -3 0 5 -11 18 -25z"/>
<path d="M5072 1370 c0 -14 2 -19 5 -12 2 6 2 18 0 25 -3 6 -5 1 -5 -13z"/>
<path d="M4600 1345 c40 -48 43 -51 32 -30 -6 11 -21 29 -34 40 -22 19 -22 19
2 -10z"/>
<path d="M4710 1323 c0 -6 8 -17 18 -24 16 -13 16 -13 2 6 -8 11 -16 22 -17
24 -2 2 -3 0 -3 -6z"/>
<path d="M5141 1304 c0 -11 3 -14 6 -6 3 7 2 16 -1 19 -3 4 -6 -2 -5 -13z"/>
<path d="M4677 1257 c26 -35 66 -57 80 -44 3 3 -7 9 -22 13 -15 4 -41 21 -57
38 l-30 31 29 -38z"/>
<path d="M4788 1273 c7 -3 16 -2 19 1 4 3 -2 6 -13 5 -11 0 -14 -3 -6 -6z"/>
<path d="M4918 1243 c7 -3 16 -2 19 1 4 3 -2 6 -13 5 -11 0 -14 -3 -6 -6z"/>
<path d="M5140 1231 c0 -5 6 -14 14 -20 12 -10 13 -8 9 8 -5 21 -23 30 -23 12z"/>
<path d="M4998 1223 c6 -2 18 -2 25 0 6 3 1 5 -13 5 -14 0 -19 -2 -12 -5z"/>
<path d="M4778 1203 c7 -3 16 -2 19 1 4 3 -2 6 -13 5 -11 0 -14 -3 -6 -6z"/>
<path d="M5065 1180 c17 -19 31 -37 33 -39 1 -2 4 -2 7 1 3 2 -12 20 -33 39
l-37 34 30 -35z"/>
<path d="M4828 1193 c7 -3 16 -2 19 1 4 3 -2 6 -13 5 -11 0 -14 -3 -6 -6z"/>
<path d="M4878 1183 c6 -2 18 -2 25 0 6 3 1 5 -13 5 -14 0 -19 -2 -12 -5z"/>
<path d="M4938 1173 c7 -3 16 -2 19 1 4 3 -2 6 -13 5 -11 0 -14 -3 -6 -6z"/>
<path d="M4988 1163 c7 -3 16 -2 19 1 4 3 -2 6 -13 5 -11 0 -14 -3 -6 -6z"/>
<path d="M5038 1153 c6 -2 18 -2 25 0 6 3 1 5 -13 5 -14 0 -19 -2 -12 -5z"/>
</g>
</svg>
